<?xml version="1.0" encoding="UTF-8" ?>
<!DOCTYPE svg PUBLIC "-//W3C//DTD SVG 1.1//EN" "http://www.w3.org/Graphics/SVG/1.1/DTD/svg11.dtd">
<svg width="299pt" height="345pt" viewBox="0 0 299 345" version="1.1" xmlns="http://www.w3.org/2000/svg">
<path fill="#fefbfb" d=" M 0.00 0.00 L 299.00 0.00 L 299.00 345.00 L 0.00 345.00 L 0.00 0.00 Z" />
<path fill="#e50000" d=" M 113.11 10.11 C 113.55 10.11 114.44 10.11 114.88 10.10 C 121.53 22.23 127.74 34.59 134.33 46.76 L 133.00 47.35 C 133.43 47.35 134.28 47.33 134.71 47.33 C 137.65 53.40 140.92 59.30 144.06 65.27 C 143.91 65.61 143.62 66.28 143.48 66.62 C 143.79 66.53 144.42 66.34 144.74 66.25 C 149.67 76.37 155.10 86.24 160.37 96.19 C 157.21 102.95 153.39 109.39 150.06 116.07 C 138.01 135.07 133.75 159.17 139.83 180.95 C 142.92 193.31 149.37 204.66 157.76 214.19 C 172.78 230.98 195.09 240.82 217.59 240.92 C 215.35 264.52 204.78 287.24 188.04 304.04 C 170.22 322.24 145.50 333.53 120.04 334.83 C 96.96 336.27 73.50 329.67 54.58 316.38 C 34.05 302.14 18.92 280.30 13.01 256.01 C 8.12 236.31 9.17 215.18 16.00 196.07 C 18.74 186.66 24.35 178.49 28.88 169.89 C 43.50 142.17 58.07 114.43 72.69 86.72 C 76.17 79.88 80.01 73.22 83.26 66.27 C 83.62 66.36 84.36 66.54 84.73 66.62 C 84.47 66.34 83.95 65.76 83.70 65.48 C 93.78 47.18 103.12 28.46 113.11 10.11 Z" />
<path fill="#e65656" d=" M 217.20 10.29 C 217.59 10.28 218.38 10.26 218.78 10.25 C 238.43 47.24 257.83 84.37 277.60 121.31 C 283.75 131.12 287.84 142.29 288.76 153.88 C 290.53 171.88 284.91 190.44 273.51 204.47 C 263.40 217.18 248.76 226.18 232.87 229.54 C 218.50 232.50 203.19 231.17 189.73 225.25 C 173.78 218.41 160.55 205.50 153.34 189.70 C 145.82 173.52 144.91 154.46 150.65 137.59 C 152.88 129.85 157.58 123.22 161.23 116.13 C 179.90 80.86 198.53 45.56 217.20 10.29 Z" />
</svg>
